<svg width="356" height="120" viewBox="0 0 356 120" fill="none" xmlns="http://www.w3.org/2000/svg">
<path d="M15.66 32.449H14.02C10.143 32.449 7 35.515 7 39.298V101.697C7 105.48 10.143 108.546 14.02 108.546H15.66C19.537 108.546 22.68 105.48 22.68 101.697V39.297C22.68 35.515 19.537 32.449 15.66 32.449Z" fill="#66CC66"/>
<path d="M72.203 35.333L71.86 34.889C69.528 31.866 65.127 31.261 62.03 33.535L32.804 54.998C29.706 57.273 29.085 61.567 31.417 64.588L31.76 65.033C34.092 68.055 38.493 68.661 41.59 66.386L70.816 44.923C73.913 42.649 74.534 38.355 72.203 35.333Z" fill="#0099CB"/>
<path d="M72.24 104.653L72.578 104.204C74.868 101.152 74.188 96.866 71.058 94.632L41.54 73.555C38.411 71.321 34.019 71.985 31.73 75.036L31.393 75.486C29.103 78.538 29.783 82.823 32.911 85.056L62.43 106.134C65.559 108.368 69.951 107.705 72.24 104.653Z" fill="#66CC66"/>
<path d="M91.13 101.112C90.71 101.961 90.19 102.615 89.58 103.054C88.96 103.493 88.32 103.795 87.64 103.951C86.96 104.107 86.39 104.185 85.94 104.185C85.42 104.185 84.84 104.107 84.19 103.951C83.54 103.795 82.91 103.493 82.3 103.054C81.68 102.615 81.17 101.961 80.75 101.112C80.33 100.263 80.12 99.171 80.12 97.844V63.064C80.12 61.804 80.33 60.771 80.75 59.98C81.17 59.19 81.67 58.576 82.26 58.137C82.84 57.697 83.44 57.395 84.06 57.239C84.67 57.083 85.21 57.005 85.66 57.005C86.11 57.005 86.66 57.083 87.31 57.239C87.96 57.395 88.57 57.698 89.16 58.137C89.74 58.576 90.24 59.2 90.67 59.98C91.09 60.77 91.3 61.795 91.3 63.063V65.434H91.49C93.19 62.42 95.01 60.634 97.1 59.132C99.36 57.502 101.75 56.439 104.6 56.332C107.76 56.224 108.69 56.79 109.88 57.356C111.38 58.068 112.23 59.307 112.38 60.946C112.53 62.586 112.52 63.893 110.43 65.786C109.34 66.781 107.49 67.063 104.33 67.044C100.64 67.014 96.79 68.264 94.78 70.693C92.77 73.122 91.77 76.234 91.77 80.029V97.844C91.77 99.171 91.56 100.263 91.14 101.112H91.13ZM133.71 44.137C133.71 46.039 133 47.619 131.59 48.877C130.17 50.137 128.43 50.771 126.35 50.771C124.27 50.771 122.56 50.107 121.2 48.791C119.85 47.473 119.17 45.921 119.17 44.137C119.17 42.351 119.85 40.81 121.2 39.483C122.55 38.166 124.27 37.503 126.35 37.503C128.43 37.503 130.17 38.136 131.59 39.395C133.01 40.653 133.71 42.235 133.71 44.137ZM132.1 98.019C132.1 99.307 131.9 100.371 131.49 101.2C131.08 102.029 130.58 102.663 129.98 103.083C129.38 103.512 128.75 103.805 128.09 103.961C127.43 104.117 126.88 104.195 126.44 104.195C125.94 104.195 125.37 104.117 124.74 103.961C124.11 103.805 123.5 103.512 122.9 103.083C122.3 102.654 121.8 102.019 121.39 101.2C120.98 100.371 120.78 99.307 120.78 98.02V64.496C120.78 63.209 120.98 62.146 121.39 61.316C121.8 60.486 122.3 59.862 122.9 59.423C123.5 58.994 124.11 58.701 124.74 58.545C125.37 58.389 125.93 58.311 126.44 58.311C126.88 58.311 127.43 58.389 128.09 58.545C128.771 58.7109 129.414 59.0093 129.98 59.423C130.58 59.853 131.08 60.487 131.49 61.316C131.9 62.146 132.1 63.209 132.1 64.496V98.019ZM152.66 101.112C152.24 101.961 151.72 102.615 151.11 103.054C150.49 103.493 149.85 103.795 149.17 103.951C148.49 104.107 147.92 104.185 147.47 104.185C146.95 104.185 146.37 104.107 145.72 103.951C145.07 103.795 144.44 103.493 143.83 103.054C143.21 102.615 142.7 101.961 142.28 101.112C141.86 100.263 141.65 99.171 141.65 97.844V63.064C141.65 61.804 141.86 60.771 142.28 59.98C142.7 59.19 143.2 58.576 143.79 58.137C144.37 57.697 144.97 57.395 145.59 57.239C146.2 57.083 146.74 57.005 147.19 57.005C147.64 57.005 148.19 57.083 148.84 57.239C149.49 57.395 150.1 57.698 150.69 58.137C151.27 58.576 151.77 59.2 152.2 59.98C152.62 60.77 152.83 61.795 152.83 63.063V65.434H153.02C154.72 62.42 156.54 60.634 158.63 59.132C160.89 57.502 163.28 56.439 166.13 56.332C169.29 56.224 170.22 56.79 171.41 57.356C172.91 58.068 173.76 59.307 173.91 60.946C174.06 62.586 174.05 63.893 171.96 65.786C170.87 66.781 169.02 67.063 165.86 67.044C162.17 67.014 158.32 68.264 156.31 70.693C154.3 73.122 153.3 76.234 153.3 80.029V97.844C153.3 99.171 153.09 100.263 152.67 101.112H152.66ZM220.34 98.117C220.34 99.347 220.15 100.341 219.77 101.112C219.39 101.883 218.92 102.478 218.35 102.907C217.78 103.337 217.2 103.61 216.6 103.737C216 103.863 215.48 103.922 215.04 103.922C214.6 103.922 214.08 103.863 213.48 103.737C212.88 103.61 212.3 103.337 211.73 102.907C211.16 102.478 210.69 101.883 210.31 101.112C209.93 100.341 209.74 99.346 209.74 98.117V97.473H209.46C208.33 99.434 206.5 101.054 203.98 102.312C201.46 103.571 198.6 104.195 195.39 104.195C193.56 104.195 191.66 103.961 189.68 103.502C187.734 103.057 185.88 102.278 184.2 101.2C182.53 100.127 181.15 98.712 180.05 96.966C178.95 95.22 178.4 93.054 178.4 90.468C178.4 87.151 179.36 84.517 181.28 82.546C183.2 80.586 185.67 79.073 188.69 78.029C191.71 76.985 195.06 76.293 198.74 75.961C202.42 75.619 206.02 75.454 209.55 75.454V74.35C209.55 71.59 208.53 69.55 206.48 68.223C204.43 66.906 202 66.243 199.16 66.243C197.4 66.243 195.73 66.555 194.16 67.16C192.59 67.774 190.98 68.575 189.35 69.55C188.28 70.165 187.27 70.467 186.33 70.467C185.13 70.467 184.13 70.067 183.31 69.267C182.49 68.467 182.08 67.453 182.08 66.223C182.08 65.55 182.25 64.838 182.6 64.106C182.95 63.365 183.65 62.662 184.72 61.989C186.86 60.575 189.25 59.492 191.9 58.721C194.568 57.9483 197.332 57.5607 200.11 57.57C204.14 57.57 207.46 58.126 210.07 59.228C212.68 60.331 214.74 61.775 216.25 63.56C217.735 65.2975 218.814 67.3436 219.41 69.55C220.01 71.765 220.31 73.97 220.31 76.184V98.106L220.34 98.117ZM207.03 82.917C205.108 82.9207 203.186 82.9987 201.27 83.151C199.25 83.307 197.4 83.639 195.7 84.166C194 84.693 192.58 85.424 191.45 86.38C190.32 87.337 189.75 88.634 189.75 90.293C189.75 91.336 189.99 92.215 190.46 92.917C190.932 93.6215 191.562 94.206 192.3 94.624C193.06 95.054 193.91 95.366 194.85 95.541C195.79 95.727 196.74 95.815 197.68 95.815C201.58 95.815 204.54 94.8 206.55 92.771C208.56 90.741 209.57 87.981 209.57 84.478V82.908H207.02L207.03 82.917ZM275.28 88.439H244.6L239.79 99.766C239.03 101.61 238.11 102.81 237 103.356C235.9 103.912 234.84 104.185 233.84 104.185C232.2 104.185 230.8 103.678 229.64 102.663C228.47 101.649 227.89 100.254 227.89 98.468C227.89 97.98 227.95 97.473 228.08 96.946C228.21 96.429 228.43 95.795 228.74 95.054L252.81 42.829C253.38 41.599 253.97 40.615 254.6 39.883C255.23 39.151 255.86 38.595 256.49 38.224C257.12 37.854 257.75 37.61 258.38 37.483C258.969 37.3622 259.569 37.3003 260.17 37.298C260.73 37.298 261.33 37.356 261.96 37.483C262.59 37.61 263.23 37.853 263.89 38.224C264.55 38.595 265.2 39.141 265.83 39.883C266.46 40.624 267.06 41.6 267.62 42.829L291.51 94.869C291.82 95.609 292.03 96.254 292.12 96.799C292.21 97.356 292.26 97.815 292.26 98.185C292.26 100.088 291.65 101.561 290.42 102.605C289.19 103.649 287.76 104.176 286.12 104.176C285.11 104.176 284.06 103.902 282.96 103.346C281.86 102.79 280.9 101.571 280.08 99.658L275.26 88.419L275.28 88.439ZM248.85 78.488H271.13L260.08 52.332L248.85 78.488ZM310.8 97.648C310.8 99.063 310.58 100.185 310.14 101.015C309.7 101.844 309.18 102.507 308.58 102.995C307.98 103.483 307.34 103.805 306.64 103.961C305.95 104.117 305.35 104.195 304.85 104.195C304.35 104.195 303.75 104.117 303.06 103.961C302.347 103.794 301.683 103.464 301.12 102.995C300.52 102.507 300 101.844 299.56 101.015C299.12 100.185 298.9 99.063 298.9 97.649V43.863C298.9 42.517 299.12 41.405 299.56 40.546C300 39.688 300.52 39.015 301.12 38.517C301.72 38.029 302.36 37.707 303.06 37.551C303.75 37.395 304.35 37.317 304.85 37.317C305.35 37.317 305.95 37.395 306.64 37.551C307.33 37.707 307.98 38.029 308.58 38.517C309.18 39.005 309.7 39.687 310.14 40.547C310.58 41.405 310.8 42.507 310.8 43.863V97.65V97.648ZM318.46 32.01C318.47 31.854 318.48 31.707 318.5 31.551C318.56 31.073 318.6 30.595 318.67 30.127C318.77 29.454 318.94 28.8 319.15 28.147C319.627 26.6665 320.339 25.2726 321.26 24.019C321.941 23.0869 322.729 22.239 323.61 21.493C324.748 20.5205 326.021 19.7188 327.39 19.113C328.37 18.683 329.39 18.341 330.45 18.146C331.02 18.039 331.59 17.951 332.17 17.893C332.87 17.814 333.57 17.815 334.27 17.843C335.36 17.893 336.44 18.058 337.49 18.332C338.64 18.634 339.73 19.063 340.77 19.619C341.67 20.098 342.5 20.654 343.28 21.297C344.38 22.205 345.33 23.229 346.13 24.4C346.952 25.6 347.592 26.9149 348.03 28.302C348.24 28.966 348.4 29.629 348.5 30.312C348.56 30.742 348.62 31.18 348.64 31.619C348.67 32.185 348.68 32.751 348.66 33.317C348.63 33.873 348.55 34.419 348.48 34.966C348.37 35.746 348.16 36.517 347.9 37.268C347.053 39.7063 345.581 41.8794 343.63 43.57C342.85 44.254 342 44.849 341.09 45.366C340.26 45.834 339.39 46.215 338.49 46.526C337.75 46.78 337 46.976 336.22 47.102C335.75 47.18 335.28 47.229 334.81 47.278C334.14 47.346 333.46 47.356 332.79 47.317C332.3 47.287 331.82 47.229 331.34 47.171C330.446 47.0496 329.565 46.8436 328.71 46.556C327.46 46.146 326.29 45.58 325.2 44.859C324.416 44.3435 323.68 43.7588 323 43.112C321.722 41.8892 320.673 40.4488 319.9 38.858C319.34 37.698 318.94 36.478 318.71 35.21C318.63 34.76 318.58 34.312 318.53 33.863C318.51 33.658 318.5 33.463 318.49 33.258C318.49 33.229 318.48 33.19 318.47 33.161V32.039L318.46 32.01ZM320.78 32.556C320.78 39.454 326.48 45.024 333.54 45.034C340.58 45.044 346.33 39.493 346.34 32.575C346.34 25.736 340.7 20.097 333.56 20.088C326.51 20.088 320.79 25.619 320.77 32.546L320.78 32.556Z" fill="white"/>
<path d="M336.47 34.205C337.59 35.932 338.71 37.639 339.84 39.375H337.6C337.54 39.375 337.5 39.356 337.47 39.307C336.5 37.815 335.53 36.332 334.56 34.849L334.29 34.439C334.27 34.409 334.23 34.38 334.19 34.38H331.24V39.366H328.91V25.766H335.03C335.77 25.766 336.51 25.834 337.21 26.098C337.67 26.273 338.14 26.429 338.56 26.712C338.83 26.898 339.04 27.122 339.26 27.356C339.6 27.717 339.85 28.126 339.96 28.615C340.06 29.063 340.16 29.512 340.18 29.971C340.2 30.351 340.15 30.731 340.06 31.112C339.99 31.424 339.91 31.737 339.8 32.029C339.62 32.469 339.3 32.819 338.94 33.132C338.37 33.629 337.69 33.892 336.96 34.078C336.8 34.118 336.65 34.156 336.48 34.195L336.47 34.205ZM331.24 32.459H334.78C335.02 32.459 335.26 32.419 335.49 32.361C335.76 32.303 336.02 32.205 336.29 32.127C336.5 32.058 336.71 32.01 336.89 31.873C337.23 31.61 337.52 31.317 337.68 30.917C337.87 30.41 337.89 29.883 337.8 29.366C337.73 28.976 337.54 28.624 337.2 28.381C337.01 28.254 336.83 28.117 336.63 28.01C336.442 27.9072 336.244 27.8222 336.04 27.756C335.87 27.707 335.68 27.698 335.5 27.678C335.21 27.648 334.93 27.59 334.64 27.59C333.54 27.58 332.45 27.59 331.35 27.59H331.25V32.468L331.24 32.459Z" fill="white"/>
</svg>
